<svg width="335.256" height="335.256" xmlns="http://www.w3.org/2000/svg">

 <g>
  <title>background</title>
  <rect fill="none" id="canvas_background" height="337.256" width="337.256" y="-1" x="-1"/>
 </g>
 <g>
  <title>Layer 1</title>
  <g id="svg_1">
   <g id="svg_2">
    <path id="svg_3" d="m266.648,98.02c-7.514,-4.838 -11.981,-13.228 -11.8,-22.164l0,-10l5.46,0c9.65,-0.009 17.471,-7.83 17.48,-17.48l0,-30.896c-0.009,-9.65 -7.83,-17.471 -17.48,-17.48l-185.36,0c-9.65,0.009 -17.471,7.83 -17.48,17.48l0,30.908c0.009,9.65 7.83,17.471 17.48,17.48l5.46,0l0,10c0.183,8.939 -4.288,17.332 -11.808,22.168c-14.089,8.889 -22.754,24.276 -23.052,40.932l0,148.4c0.029,26.427 21.437,47.846 47.864,47.888l148.436,0c26.432,-0.042 47.842,-21.472 47.86,-47.904l0,-148.4c-0.003,-16.737 -8.747,-32.257 -23.06,-40.932zm-207.1,46.26l216.16,0l0,132.716l-216.16,0l0,-132.716zm11.92,-95.892l0,-30.908c0.002,-1.921 1.559,-3.478 3.48,-3.48l185.36,0c1.921,0.002 3.478,1.559 3.48,3.48l0,30.908c-0.002,1.921 -1.559,3.478 -3.48,3.48l-185.36,0c-1.921,-0.002 -3.478,-1.559 -3.48,-3.48zm4.4,61.6c11.69,-7.384 18.709,-20.306 18.54,-34.132l0,-10l146.44,0l0,10c-0.171,13.83 6.852,26.757 18.548,34.14c7.521,4.518 12.976,11.798 15.2,20.284l-213.948,0c2.225,-8.485 7.68,-15.763 15.2,-20.28l0.02,-0.012zm165.98,211.268l-148.436,0c-17.293,-0.033 -31.794,-13.068 -33.664,-30.26l215.756,0c-1.864,17.192 -16.364,30.228 -33.656,30.26z" fill="#ffffff"/>
    <path id="svg_4" d="m99.848,41.08l0,-16.292c0,-3.866 -3.134,-7 -7,-7s-7,3.134 -7,7l0,16.292c0,3.866 3.134,7 7,7s7,-3.134 7,-7z" fill="#ffffff"/>
    <path id="svg_5" d="m122.756,48.08c3.865,-0.002 6.998,-3.135 7,-7l0,-16.292c0,-3.866 -3.134,-7 -7,-7s-7,3.134 -7,7l0,16.292c0,3.866 3.134,7 7,7z" fill="#ffffff"/>
    <path id="svg_6" d="m152.672,48.08c3.866,0 7,-3.134 7,-7l0,-16.292c0,-3.866 -3.134,-7 -7,-7s-7,3.134 -7,7l0,16.292c0,3.866 3.134,7 7,7z" fill="#ffffff"/>
    <path id="svg_7" d="m182.588,48.08c3.865,-0.002 6.998,-3.135 7,-7l0,-16.292c0,-3.866 -3.134,-7 -7,-7s-7,3.134 -7,7l0,16.292c0,3.866 3.134,7 7,7z" fill="#ffffff"/>
    <path id="svg_8" d="m212.504,48.08c3.866,0 7,-3.134 7,-7l0,-16.292c0,-3.866 -3.134,-7 -7,-7s-7,3.134 -7,7l0,16.292c0,3.866 3.134,7 7,7z" fill="#ffffff"/>
    <path id="svg_9" d="m242.424,48.08c3.865,-0.002 6.998,-3.135 7,-7l0,-16.292c0,-3.866 -3.134,-7 -7,-7s-7,3.134 -7,7l0,16.292c0,3.866 3.134,7 7,7z" fill="#ffffff"/>
   </g>
  </g>
  <text font-weight="bold" stroke="#000" transform="matrix(0.9903110861778259,0,0,1,0.6406794264912605,0) " xml:space="preserve" text-anchor="start" font-family="'Palatino Linotype', 'Book Antiqua', Palatino, serif" font-size="70" id="svg_12" y="203.081116" x="66.127991" stroke-width="0" fill="#ffffff">ZAKA</text>
  <text font-weight="bold" stroke="#000" transform="matrix(1.1783450643532625,0,0,1,-12.697268321285218,0) " xml:space="preserve" text-anchor="start" font-family="'Palatino Linotype', 'Book Antiqua', Palatino, serif" font-size="70" id="svg_13" y="263.081116" x="65.913628" stroke-width="0" fill="#ffffff">RIEV</text>
 </g>
</svg>