<svg id="Capa_1" enable-background="new 0 0 512.003 512.003" height="512" viewBox="0 0 512.003 512.003" width="512" xmlns="http://www.w3.org/2000/svg"><g><g><path d="m260.226 193.575c-1.091 0-2.2-.236-3.252-.734-3.8-1.798-5.421-6.336-3.622-10.136 7.604-16.062 9.254-31.351 5.046-46.74-1.192-4.362-2.949-8.494-5.224-12.283l-.383-.628c-5.846-9.483-15.595-15.822-26.742-17.385-11.721-1.645-23.511 2.031-32.338 10.084-4.027 3.674-8.335 7.099-12.803 10.18-30.084 20.755-67.464 26.456-102.549 15.637-35.99-11.097-64.364-37.473-77.845-72.363-1.515-3.921.435-8.328 4.357-9.843 3.923-1.513 8.328.435 9.843 4.357 11.791 30.514 36.623 53.587 68.131 63.302 30.602 9.435 63.196 4.471 89.42-13.621 3.904-2.692 7.667-5.685 11.186-8.895 12.186-11.118 28.48-16.188 44.713-13.914 15.652 2.195 29.353 11.116 37.589 24.477l.472.775c2.993 4.985 5.299 10.403 6.857 16.105 5.208 19.047 3.256 37.779-5.971 57.269-1.301 2.747-4.034 4.356-6.885 4.356z" fill="#da4a54"/></g><path d="m507.625 227.45c-8.588-14.062-26.95-18.5-41.012-9.912l-28.103 17.163c-10.845 6.623-24.757-1.182-24.757-13.889v-13.553-20.436-115.378c0-16.477-13.357-29.835-29.835-29.835-16.477 0-29.835 13.357-29.835 29.835v-37.803c0-16.477-13.357-29.835-29.835-29.835-16.477 0-29.835 13.357-29.835 29.835v153.181h-141.707v136.188c0 20.778 5.872 41.132 16.939 58.717 11.067 17.585 16.939 37.94 16.939 58.718v43.07c0 13.63 11.049 24.68 24.68 24.68h143.934c13.63 0 24.68-11.049 24.68-24.68v-43.07c0-20.778 5.872-41.132 16.939-58.718 9.905-15.739 14.035-31.568 15.746-43.298 1.833-12.563 9.258-23.618 20.093-30.235l65.059-39.732c14.061-8.589 18.499-26.951 9.91-41.013z" fill="#dd636e"/><g fill="#da4a54"><path d="m386.873 65.356v115.378 20.436 13.553c0 12.707 13.912 20.512 24.757 13.889l3.193-1.95c-.683-1.789-1.069-3.75-1.069-5.85v-13.553-20.436-115.378c0-16.477-13.358-29.835-29.835-29.835-2.629 0-5.177.343-7.605.981 6.457 5.474 10.559 13.638 10.559 22.765z"/><path d="m507.626 227.45c-7.038-11.524-20.638-16.578-33.058-13.303 2.37 2.008 4.47 4.417 6.177 7.214 8.588 14.062 4.15 32.424-9.912 41.012l-65.059 39.732c-10.835 6.617-18.261 17.672-20.093 30.235-1.711 11.73-5.841 27.56-15.746 43.299-11.067 17.585-16.939 37.94-16.939 58.717v54.234c0 7.993-3.803 15.095-9.695 19.605h11.896c13.63 0 24.68-11.05 24.68-24.68v-43.07c0-20.777 5.872-41.132 16.939-58.717 9.905-15.739 14.035-31.569 15.746-43.299 1.832-12.563 9.258-23.618 20.093-30.235l65.059-39.732c14.062-8.588 18.5-26.95 9.912-41.012z"/></g><g><path d="m354.085 197.499c-4.204 0-7.611-3.407-7.611-7.611v-118.442c0-4.204 3.407-7.611 7.611-7.611s7.612 3.407 7.612 7.611v118.442c-.001 4.204-3.408 7.611-7.612 7.611z" fill="#da4a54"/></g><g><path d="m294.415 194.446h-239.684c-4.204 0-7.611-3.407-7.611-7.611s3.407-7.611 7.611-7.611h239.684c4.204 0 7.612 3.407 7.612 7.611s-3.408 7.611-7.612 7.611z" fill="#dae4ea"/></g><ellipse cx="45.625" cy="186.835" fill="#e7ecf1" rx="29.936" ry="20.677"/><g><path d="m173.278 205.124c-4.204 0-7.611-3.407-7.611-7.611v-25.402c0-4.204 3.407-7.611 7.611-7.611s7.611 3.407 7.611 7.611v25.402c0 4.204-3.407 7.611-7.611 7.611z" fill="#da4a54"/></g><g><path d="m205.666 205.124c-4.204 0-7.611-3.407-7.611-7.611v-25.402c0-4.204 3.407-7.611 7.611-7.611s7.611 3.407 7.611 7.611v25.402c.001 4.204-3.407 7.611-7.611 7.611z" fill="#da4a54"/></g><g><path d="m238.054 205.124c-4.204 0-7.611-3.407-7.611-7.611v-25.402c0-4.204 3.407-7.611 7.611-7.611s7.611 3.407 7.611 7.611v25.402c0 4.204-3.407 7.611-7.611 7.611z" fill="#da4a54"/></g><g><path d="m224.741 284.645c-1.521 0-3.043-.455-4.35-1.366l-29.148-20.297c-3.45-2.401-4.298-7.146-1.896-10.596 2.4-3.449 7.144-4.3 10.596-1.896l24.798 17.268 24.798-17.268c2.614-1.822 6.085-1.821 8.7-.001l24.799 17.269 24.798-17.268c2.614-1.822 6.086-1.821 8.699-.001l24.804 17.27 24.803-17.27c3.451-2.404 8.193-1.552 10.596 1.898 2.401 3.45 1.552 8.193-1.898 10.596l-29.152 20.297c-2.612 1.82-6.085 1.82-8.698 0l-24.804-17.27-24.798 17.269c-2.614 1.822-6.085 1.821-8.7.001l-24.799-17.269-24.798 17.268c-1.308.911-2.829 1.366-4.35 1.366z" fill="#e7ecf1"/></g><g><path d="m312.19 333.456c-1.521 0-3.043-.455-4.35-1.365l-24.799-17.269-24.799 17.269c-2.614 1.82-6.086 1.82-8.699 0l-29.152-20.297c-3.45-2.402-4.299-7.146-1.898-10.596 2.402-3.449 7.147-4.299 10.596-1.898l24.803 17.27 24.799-17.27c2.614-1.82 6.085-1.82 8.7 0l24.799 17.269 24.798-17.268c3.451-2.403 8.196-1.552 10.596 1.896 2.402 3.45 1.554 8.194-1.896 10.596l-29.148 20.297c-1.308.912-2.829 1.366-4.35 1.366z" fill="#e7ecf1"/></g></g></svg>